<svg xmlns="http://www.w3.org/2000/svg" xmlns:xlink="http://www.w3.org/1999/xlink" viewBox="0 0 500 500.18"><defs><style>.cls-1{fill:none;}.cls-2{fill:#35b3f1;}.cls-3{clip-path:url(#clip-path);}.cls-4{fill:#092b48;}.cls-5{fill:#f0f8ff;}.cls-6{fill:#e4a330;}.cls-7{fill:#e1972f;}.cls-8{fill:#c72b2c;}.cls-9{fill:#7c4226;}.cls-10{fill:#a35f30;}.cls-11{fill:#4d713d;}.cls-12{fill:#fff;}.cls-13{fill:#ad262b;}.cls-14{fill:#844d29;}.cls-15{fill:#eec131;}.cls-16{fill:#ebba63;}</style><clipPath id="clip-path"><path class="cls-1" d="M214.08,14.82,186.88,42,117.27,54.29a56.24,56.24,0,0,0-45.61,65.14l5.67,32.14L14.82,214.08a50.94,50.94,0,0,0,0,71.84L119.47,390.58l94.61,94.6a50.94,50.94,0,0,0,71.84,0L408,363.11l77.19-77.19a50.94,50.94,0,0,0,0-71.84L359.56,88.46l-3.38-19.2a56.19,56.19,0,0,0-61.84-46l-8.42-8.42a50.94,50.94,0,0,0-71.84,0"/></clipPath></defs><title>logo-primary</title><g id="Layer_2" data-name="Layer 2"><g id="Primary"><path class="cls-2" d="M214.08,485.18,14.82,285.92a50.94,50.94,0,0,1,0-71.84L214.08,14.82a50.94,50.94,0,0,1,71.84,0L485.18,214.08a50.94,50.94,0,0,1,0,71.84L285.92,485.18a50.94,50.94,0,0,1-71.84,0"/><g class="cls-3"><path class="cls-1" d="M14.82,214.08a50.94,50.94,0,0,0,0,71.84L119.48,390.58l-42.15-239Z"/><path class="cls-1" d="M285.92,14.82a50.94,50.94,0,0,0-71.84,0L186.88,42,294.2,23.1Z"/><path class="cls-1" d="M485.18,214.08,359.56,88.46,408,363.11l77.19-77.19A50.94,50.94,0,0,0,485.18,214.08Z"/><path class="cls-4" d="M294.2,23.1,186.88,42,77.33,151.57l42.15,239,94.6,94.6a50.94,50.94,0,0,0,71.84,0L408,363.11,359.56,88.46Z"/><path class="cls-4" d="M359.46,88.36,352.89,51.1a37.3,37.3,0,0,0-43.22-30.26L294.6,23.5Z"/><path class="cls-4" d="M77.26,151.64l109.05-109L98.64,58.05a37.31,37.31,0,0,0-30.26,43.22Z"/><path class="cls-5" d="M244.78,68.08,175.94,80.22a7.12,7.12,0,1,1-2.47-14l68.84-12.14a7.12,7.12,0,1,1,2.47,14"/><path class="cls-5" d="M391.66,379.44,287,484.08c-16.16,17.66-52.44,27.14-79.85-5.81L143.91,415,91.24,116.32,337.6,72.87Z"/></g><path class="cls-6" d="M176.14,298.39H337.33a3.47,3.47,0,0,1,3.47,3.47v7.92a19.55,19.55,0,0,1-19.55,19.55h-129a19.55,19.55,0,0,1-19.55-19.55v-7.92a3.47,3.47,0,0,1,3.47-3.47Z" transform="translate(-47.79 46.12) rotate(-9.4)"/><path class="cls-7" d="M339.67,300.12l-2.08-12.54a2.75,2.75,0,0,0-3.15-2.26l-8.52,1.41c-17,18.55-50.21,33.39-79.77,44.56l80.77-13.37A15.53,15.53,0,0,0,339.67,300.12Z"/><rect class="cls-8" x="169.65" y="263.5" width="159.51" height="12.15" rx="4.52" transform="translate(-40.66 44.33) rotate(-9.4)"/><path class="cls-9" d="M308.3,289.65l14.57-2.41A9.86,9.86,0,0,0,331,275.93l-.6-3.63a9.83,9.83,0,0,0-5.88-7.43C323.11,275.34,314.58,284.33,308.3,289.65Z"/><path class="cls-10" d="M324.09,251.46,174.42,276.23c-3.24-1.62-5.26-3.07-5.61-5.19l-2.61-15.78a3.92,3.92,0,0,1,3.21-4.49L319.09,226a3.91,3.91,0,0,1,4.48,3.21L326.19,245C326.54,247.12,325.09,249.14,324.09,251.46Z"/><path class="cls-11" d="M330.92,232.9S322,220.64,322,220.64l-74,12.25-9,1.48-74,12.25s-4.52,14.45-4.53,14.5c-2.32,7.43,9.23,7.17,12.48,4.34,1.32-1.16,2.2-2.79,3.48-4,4.14-3.89,9.63-2.93,14.18,0,0,0,15.33,11.78,25.29-3.06,3.33-5,7.86-8.07,13.79-6.06,5.38,1.82,10,6.36,15.54,7.44,3.85.74,7.65-1.08,10.23-4.09,1.73-2,2.36-4.82,4.33-6.61a13.61,13.61,0,0,1,17.81-.89c14.21,10.84,24.92-5.25,24.92-5.25,3.38-4.2,8.27-6.88,13.45-4.53,1.59.72,2.95,2,4.58,2.66C324.5,242.67,335.51,239.19,330.92,232.9Z"/><path class="cls-6" d="M162.26,249.46h0c-5.07-30.65,24.44-70.9,69.24-78.32h0c44.79-7.41,88.59,20.72,93.66,51.36h0Z"/><path class="cls-7" d="M283.67,178.72c-5.46,27.35-25.33,46.1-43.07,57.77l84.46-14C321.43,202.86,301.82,185,283.67,178.72Z"/><path class="cls-12" d="M206.22,198.45c-1.31,2.21-3.18,3.52-4.18,2.93s-.75-2.86.56-5.07,3.18-3.52,4.18-2.93S207.53,196.25,206.22,198.45Z"/><path class="cls-12" d="M265,189.2c-2,1.63-4.19,2.22-4.93,1.32s.28-2.94,2.26-4.57,4.19-2.22,4.92-1.33S267,187.57,265,189.2Z"/><ellipse class="cls-12" cx="234" cy="193.5" rx="4.5" ry="1.99" transform="translate(30.35 418.72) rotate(-87.47)"/><path class="cls-12" d="M220.93,186.5c2,1.62,3,3.67,2.26,4.57s-2.94.31-4.93-1.32-3-3.67-2.26-4.57S218.94,184.87,220.93,186.5Z"/><path class="cls-12" d="M249.56,182.35c2.51.54,4.34,1.91,4.1,3s-2.48,1.62-5,1.07-4.34-1.9-4.09-3S247.06,181.8,249.56,182.35Z"/><path class="cls-13" d="M198.72,272.91l43.17,4.9,25.54-4.23S240.75,266.41,198.72,272.91Z"/><rect class="cls-14" x="171.36" y="275.41" width="161.89" height="23.34" rx="8.68" transform="translate(-43.48 45.04) rotate(-9.4)"/><path class="cls-9" d="M238.74,277.5s41.34,4.95,54.66,11.86l18.14-23.58Z"/><path class="cls-15" d="M291.69,283,312,253.52l-119.43,19.7S247.57,268,291.69,283Z"/><path class="cls-16" d="M166.11,244s2.66-45.19,49.92-63C216,181,182.76,207.61,166.11,244Z"/></g></g></svg>